<svg xmlns="http://www.w3.org/2000/svg" viewBox="0 0 100 100"><path fill="none" d="M53.164 52.326l-.018 6.468 34.286-19.925.019-6.577-5.209 3.028-29.078 16.898zM13.465 37.524L50.333 58.81l.01-3.543.008-3.049-37.788-21.817-.018 6.592zm38.293 12.258l7.206-4.188 27.094-15.746L48.27 8.032l-34.3 19.933zm-3.097 25.146l.039-13.813-34.538-19.941-.085 30.047 34.538 19.941zm3.775-12.469l-.002.002c-.069.04-.144.062-.217.089-.042.015-.08.039-.123.051-.118.031-.24.047-.361.047-.075 0-.149-.017-.224-.029l-.081 28.527 34.287-19.925.08-28.147-33.356 19.384-.003.001z"/><path d="M90.27 29.843c0-.072-.017-.14-.028-.209-.008-.051-.007-.105-.021-.155-.02-.076-.057-.145-.089-.215-.018-.04-.029-.083-.05-.121-.043-.074-.1-.139-.156-.204-.023-.027-.04-.06-.066-.086a1.393 1.393 0 00-.294-.226L48.971 5.188a1.407 1.407 0 00-1.41.002L10.457 26.753c-.057.033-.102.079-.153.118-.045.036-.096.065-.137.106-.044.044-.076.098-.114.148-.036.047-.078.09-.107.141-.03.053-.047.112-.07.168-.023.056-.053.109-.069.168-.016.059-.016.121-.025.182-.008.061-.024.119-.025.181l-.027 9.834c-.001.504.267.97.703 1.222l.921.532-.092 32.475c-.001.504.267.97.703 1.222l37.346 21.562a1.411 1.411 0 001.064.141c.042-.011.081-.035.123-.051.073-.027.148-.05.217-.089l.002-.002.003-.001 37.104-21.562c.432-.251.698-.712.7-1.212l.087-30.599.932-.541c.432-.251.698-.712.7-1.212l.028-9.835v-.003l-.001-.003zm-2.819 2.449l-.019 6.576-34.286 19.926.018-6.468v-.108L82.242 35.32l5.209-3.028zm-37.1 19.926l-.009 3.05-.01 3.542-36.867-21.286-.92-.531.019-6.592 37.787 21.817zM48.27 8.032l37.788 21.817-27.094 15.745-7.206 4.187L13.97 27.965l34.3-19.933zM14.162 41.174L48.7 61.115l-.039 13.813-.046 16.234-34.538-19.941.085-30.047zm71.552 30.047L51.427 91.146l.081-28.527c.074.012.149.029.224.029.122 0 .243-.016.361-.047.042-.011.081-.035.123-.051.073-.027.148-.05.217-.089l.002-.002.003-.001 33.355-19.384-.079 28.147z"/></svg>