<svg xmlns="http://www.w3.org/2000/svg" viewBox="0 0 100 100"><path d="M60.063 23.334H39.937a2.687 2.687 0 010-5.375h20.126a2.687 2.687 0 010 5.375z"/><path d="M60.063 17.96H39.938a2.688 2.688 0 100 5.374h20.125a2.687 2.687 0 000-5.375zm20.329 12.246H19.608a.998.998 0 010-1.996h60.784a.998.998 0 010 1.996z"/><path d="M80.392 28.21H19.608a.998.998 0 100 1.996h60.784a.998.998 0 100-1.997zm0 8.496H19.608a.998.998 0 010-1.996h60.784a.998.998 0 010 1.996z"/><path d="M80.392 34.71H19.608a.998.998 0 100 1.996h60.784a.998.998 0 100-1.997zm0 8.496H19.608a.998.998 0 010-1.996h60.784a.998.998 0 010 1.996z"/><path d="M80.392 41.21H19.608a.998.998 0 100 1.996h60.784a.998.998 0 100-1.997zm0 8.496H19.608a.998.998 0 010-1.996h60.784a.998.998 0 010 1.996z"/><path d="M80.392 47.71H19.608a.998.998 0 100 1.996h60.784a.998.998 0 100-1.997zm-18.32 15.378l-1.709-2.476-.362-2.985-2.663-1.398-1.709-2.475h-3.008l-2.663-1.398-2.663 1.398h-3.008l-1.708 2.475-2.663 1.398-.363 2.985-1.708 2.476L38.91 65.9l-.362 2.986 2.25 1.994 1.067 2.812 2.92.72 2.252 1.995 2.92-.72 2.92.72 2.252-1.995 2.92-.72 1.067-2.812 2.25-1.994-.362-2.986 1.067-2.812zm-12.114 9.344c-4.439 0-8.05-3.612-8.05-8.05 0-4.44 3.611-8.051 8.05-8.051s8.05 3.611 8.05 8.05c0 4.44-3.61 8.05-8.05 8.05z"/><path d="M49.715 77.576l-6.572 12.086-1.597-6.917-6.125 2.531 5.234-9.635-.799-2.241-8.39 15.431 8.821-3.644 2.18 9.438 9.039-16.611zm10.38-4.266c-.824 2.172-.676 1.777-.833 2.206l5.317 9.76-6.126-2.531-1.597 6.917-4.759-8.753-1.06 1.767 6.497 11.949 2.178-9.438 8.822 3.644-8.44-15.522zM49.938 59.379l1.54 3.121 3.443.5-2.492 2.428.588 3.43-3.079-1.619-3.08 1.619.588-3.43L44.955 63l3.443-.5z"/><path d="M83.141 9.125H15.484a7.859 7.859 0 00-7.859 7.859v45.454a7.859 7.859 0 007.859 7.859H36.25v-3H15.484a4.864 4.864 0 01-4.859-4.859V16.984c0-2.68 2.18-4.859 4.859-4.859H83.14c2.68 0 4.859 2.18 4.859 4.859v45.454c0 2.68-2.18 4.859-4.859 4.859H63.75v3h19.391A7.859 7.859 0 0091 62.438V16.984a7.859 7.859 0 00-7.859-7.859z"/></svg>